<svg xmlns="http://www.w3.org/2000/svg" width="900" height="360" viewBox="0 0 900 360">
  <defs>
    <linearGradient id="bgGrad" x1="0%" y1="0%" x2="100%" y2="100%">
      <stop offset="0%" style="stop-color:#1e1e2e"/>
      <stop offset="100%" style="stop-color:#181825"/>
    </linearGradient>
    <filter id="shadow">
      <feDropShadow dx="0" dy="2" stdDeviation="3" flood-color="#11111b" flood-opacity="0.5"/>
    </filter>
    <marker id="arrowBlue" markerWidth="8" markerHeight="6" refX="8" refY="3" orient="auto">
      <polygon points="0 0, 8 3, 0 6" fill="#89b4fa"/>
    </marker>
    <marker id="arrowGreen" markerWidth="8" markerHeight="6" refX="8" refY="3" orient="auto">
      <polygon points="0 0, 8 3, 0 6" fill="#a6e3a1"/>
    </marker>
    <marker id="arrowYellow" markerWidth="8" markerHeight="6" refX="8" refY="3" orient="auto">
      <polygon points="0 0, 8 3, 0 6" fill="#f9e2af"/>
    </marker>
    <marker id="arrowPink" markerWidth="8" markerHeight="6" refX="8" refY="3" orient="auto">
      <polygon points="0 0, 8 3, 0 6" fill="#f38ba8"/>
    </marker>
  </defs>

  <rect width="900" height="360" fill="url(#bgGrad)" rx="16"/>
  <text x="450" y="34" text-anchor="middle" font-family="'Segoe UI', Arial, sans-serif" font-weight="700" font-size="18" fill="#cdd6f4">Registry Operation Lifecycle</text>

  <!-- State: Defined -->
  <g filter="url(#shadow)">
    <rect x="30" y="130" width="100" height="44" rx="22" fill="#45475a" stroke="#89b4fa" stroke-width="2"/>
    <text x="80" y="158" text-anchor="middle" font-family="'Segoe UI', Arial, sans-serif" font-weight="700" font-size="13" fill="#89b4fa">Defined</text>
  </g>
  <line x1="130" y1="152" x2="170" y2="152" stroke="#89b4fa" stroke-width="1.5" marker-end="url(#arrowBlue)"/>
  <text x="150" y="143" text-anchor="middle" font-family="'Cascadia Code', monospace" font-size="8" fill="#585b70">Register()</text>

  <!-- State: Registered -->
  <g filter="url(#shadow)">
    <rect x="175" y="130" width="110" height="44" rx="22" fill="#45475a" stroke="#a6e3a1" stroke-width="2"/>
    <text x="230" y="158" text-anchor="middle" font-family="'Segoe UI', Arial, sans-serif" font-weight="700" font-size="13" fill="#a6e3a1">Registered</text>
  </g>
  <line x1="285" y1="152" x2="335" y2="152" stroke="#a6e3a1" stroke-width="1.5" marker-end="url(#arrowGreen)"/>
  <text x="310" y="143" text-anchor="middle" font-family="'Cascadia Code', monospace" font-size="8" fill="#585b70">Detect()</text>

  <!-- State: Detecting -->
  <g filter="url(#shadow)">
    <rect x="340" y="120" width="110" height="64" rx="10" fill="#316044" stroke="#f9e2af" stroke-width="2"/>
    <text x="395" y="148" text-anchor="middle" font-family="'Segoe UI', Arial, sans-serif" font-weight="700" font-size="13" fill="#f9e2af">Detecting</text>
    <text x="395" y="168" text-anchor="middle" font-family="'Cascadia Code', monospace" font-size="9" fill="#585b70">Evaluate(ops)</text>
  </g>

  <!-- Branch: Applied -->
  <line x1="450" y1="132" x2="520" y2="78" stroke="#a6e3a1" stroke-width="1.5" marker-end="url(#arrowGreen)"/>
  <text x="488" y="95" text-anchor="middle" font-family="'Cascadia Code', monospace" font-size="8" fill="#585b70">all pass</text>
  <g filter="url(#shadow)">
    <rect x="528" y="56" width="110" height="44" rx="22" fill="#316044" stroke="#a6e3a1" stroke-width="2"/>
    <text x="583" y="84" text-anchor="middle" font-family="'Segoe UI', Arial, sans-serif" font-weight="700" font-size="13" fill="#a6e3a1">Applied</text>
  </g>

  <!-- Branch: NotApplied -->
  <line x1="450" y1="152" x2="520" y2="152" stroke="#f38ba8" stroke-width="1.5" marker-end="url(#arrowPink)"/>
  <text x="485" y="143" text-anchor="middle" font-family="'Cascadia Code', monospace" font-size="8" fill="#585b70">some fail</text>
  <g filter="url(#shadow)">
    <rect x="528" y="130" width="120" height="44" rx="22" fill="#316044" stroke="#f38ba8" stroke-width="2"/>
    <text x="588" y="158" text-anchor="middle" font-family="'Segoe UI', Arial, sans-serif" font-weight="700" font-size="13" fill="#f38ba8">NotApplied</text>
  </g>

  <!-- Branch: Unknown -->
  <line x1="450" y1="172" x2="530" y2="226" stroke="#f9e2af" stroke-width="1.5" marker-end="url(#arrowYellow)"/>
  <text x="490" y="210" text-anchor="middle" font-family="'Cascadia Code', monospace" font-size="8" fill="#585b70">error</text>
  <g filter="url(#shadow)">
    <rect x="528" y="204" width="110" height="44" rx="22" fill="#316044" stroke="#f9e2af" stroke-width="2"/>
    <text x="583" y="232" text-anchor="middle" font-family="'Segoe UI', Arial, sans-serif" font-weight="700" font-size="13" fill="#f9e2af">Unknown</text>
  </g>

  <!-- Action: Remove from Applied -->
  <line x1="638" y1="78" x2="700" y2="78" stroke="#f38ba8" stroke-width="1.5" marker-end="url(#arrowPink)"/>
  <g filter="url(#shadow)">
    <rect x="708" y="56" width="110" height="44" rx="10" fill="#316044" stroke="#f38ba8" stroke-width="1.5"/>
    <text x="763" y="84" text-anchor="middle" font-family="'Segoe UI', Arial, sans-serif" font-weight="600" font-size="12" fill="#f38ba8">Removing</text>
  </g>

  <!-- Action: Apply from NotApplied -->
  <line x1="648" y1="152" x2="700" y2="152" stroke="#a6e3a1" stroke-width="1.5" marker-end="url(#arrowGreen)"/>
  <g filter="url(#shadow)">
    <rect x="708" y="130" width="110" height="44" rx="10" fill="#316044" stroke="#a6e3a1" stroke-width="1.5"/>
    <text x="763" y="158" text-anchor="middle" font-family="'Segoe UI', Arial, sans-serif" font-weight="600" font-size="12" fill="#a6e3a1">Applying</text>
  </g>

  <!-- Loop-back arrows (Applying → Applied) -->
  <path d="M 818 145 Q 855 115 818 85" fill="none" stroke="#a6e3a1" stroke-width="1" stroke-dasharray="4 2" marker-end="url(#arrowGreen)"/>
  <text x="865" y="118" text-anchor="start" font-family="'Cascadia Code', monospace" font-size="8" fill="#585b70">success</text>

  <!-- Loop-back arrows (Removing → NotApplied) -->
  <path d="M 818 93 Q 855 120 818 145" fill="none" stroke="#f38ba8" stroke-width="1" stroke-dasharray="4 2" marker-end="url(#arrowPink)"/>

  <!-- TweakResult box -->
  <g filter="url(#shadow)">
    <rect x="180" y="274" width="540" height="60" rx="8" fill="#316044" stroke="#585b70" stroke-width="0.5"/>
    <text x="210" y="297" font-family="'Segoe UI', Arial, sans-serif" font-weight="600" font-size="11" fill="#a6adc8">TweakResult:</text>
    <rect x="296" y="282" width="60" height="22" rx="4" fill="#a6e3a1" opacity="0.2"/>
    <text x="326" y="297" text-anchor="middle" font-family="'Cascadia Code', monospace" font-size="10" fill="#a6e3a1">Applied</text>
    <rect x="365" y="282" width="78" height="22" rx="4" fill="#f38ba8" opacity="0.2"/>
    <text x="404" y="297" text-anchor="middle" font-family="'Cascadia Code', monospace" font-size="10" fill="#f38ba8">NotApplied</text>
    <rect x="452" y="282" width="62" height="22" rx="4" fill="#f9e2af" opacity="0.2"/>
    <text x="483" y="297" text-anchor="middle" font-family="'Cascadia Code', monospace" font-size="10" fill="#f9e2af">Unknown</text>
    <rect x="523" y="282" width="42" height="22" rx="4" fill="#f38ba8" opacity="0.15"/>
    <text x="544" y="297" text-anchor="middle" font-family="'Cascadia Code', monospace" font-size="10" fill="#f38ba8">Error</text>

    <text x="210" y="323" font-family="'Segoe UI', Arial, sans-serif" font-weight="600" font-size="11" fill="#a6adc8">Skip Reasons:</text>
    <rect x="314" y="308" width="80" height="22" rx="4" fill="#585b70" opacity="0.3"/>
    <text x="354" y="323" text-anchor="middle" font-family="'Cascadia Code', monospace" font-size="9" fill="#585b70">SkippedCorp</text>
    <rect x="402" y="308" width="78" height="22" rx="4" fill="#585b70" opacity="0.3"/>
    <text x="441" y="323" text-anchor="middle" font-family="'Cascadia Code', monospace" font-size="9" fill="#585b70">SkippedBuild</text>
    <rect x="488" y="308" width="66" height="22" rx="4" fill="#585b70" opacity="0.3"/>
    <text x="521" y="323" text-anchor="middle" font-family="'Cascadia Code', monospace" font-size="9" fill="#585b70">SkippedHw</text>
  </g>
</svg>
